<?xml version="1.0" standalone="no"?>
<!DOCTYPE svg PUBLIC "-//W3C//DTD SVG 20010904//EN"
 "http://www.w3.org/TR/2001/REC-SVG-20010904/DTD/svg10.dtd">
<svg version="1.0" xmlns="http://www.w3.org/2000/svg"
 width="890.000000pt" height="370.000000pt" viewBox="0 0 890.000000 370.000000"
 preserveAspectRatio="xMidYMid meet">

<g transform="translate(0.000000,370.000000) scale(0.100000,-0.100000)"
fill="#000000" stroke="none">
<path d="M649 3435 c-4 -5 -10 -68 -14 -139 -5 -93 -4 -127 4 -122 6 4 11 31
11 59 0 29 3 69 6 90 l7 37 223 0 224 0 0 -535 0 -534 -72 -3 c-103 -4 -87
-22 22 -26 l90 -3 0 -637 c0 -817 -8 -916 -87 -1080 -41 -84 -122 -165 -182
-183 -32 -10 -44 -9 -72 5 -33 17 -55 13 -29 -5 11 -8 8 -9 -10 -3 -14 3 -31
11 -38 17 -7 5 -16 7 -19 3 -4 -4 -1 -12 7 -17 11 -8 8 -9 -10 -3 -14 3 -31
11 -38 17 -7 5 -16 7 -19 3 -4 -4 -1 -11 7 -16 23 -15 4 -12 -36 5 -26 11 -34
11 -32 2 3 -6 27 -20 54 -29 40 -15 78 -18 214 -15 155 2 168 4 222 29 107 50
184 155 230 319 21 72 22 97 27 834 l6 760 152 3 152 3 3 -518 c4 -450 7 -526
21 -578 55 -194 174 -312 361 -360 84 -21 274 -29 388 -16 234 27 375 136 445
344 l28 82 3 523 3 522 160 0 159 0 0 -725 0 -725 -92 -1 c-77 -1 -86 -3 -53
-10 52 -10 438 -10 490 0 34 7 26 9 -48 10 -60 1 -89 5 -92 14 -3 6 -4 271 -3
587 l3 574 415 -592 c228 -325 421 -592 428 -592 6 0 12 12 12 28 l1 27 17
-27 c9 -16 22 -28 29 -28 7 0 13 12 13 28 l1 27 17 -27 c9 -16 22 -28 29 -28
7 0 13 12 13 28 l1 27 17 -28 c42 -68 42 -65 42 703 l0 730 160 0 160 0 0
-725 0 -725 -92 -1 c-77 -1 -86 -3 -53 -10 52 -10 438 -10 490 0 33 7 24 9
-52 10 l-93 1 0 720 0 720 285 0 285 0 6 28 c3 15 17 70 30 122 21 87 23 113
8 97 -3 -3 -18 -54 -33 -114 l-27 -108 -100 -3 c-54 -2 -177 0 -271 3 l-173 7
0 274 0 274 200 0 200 0 0 -76 c0 -47 4 -73 10 -69 6 4 10 67 10 156 0 93 -4
149 -10 149 -6 0 -10 -30 -10 -70 l0 -70 -200 0 -200 0 0 250 0 250 266 0 265
0 -1 -87 c-1 -49 0 -92 1 -98 4 -19 17 91 18 148 l1 57 -355 0 c-230 0 -355
-4 -355 -10 0 -6 30 -10 70 -10 l70 0 0 -535 0 -535 -390 0 -390 0 0 536 0
536 153 -4 c141 -3 156 -6 212 -31 127 -59 176 -148 153 -277 -22 -125 -127
-209 -285 -227 -29 -3 -53 -10 -53 -14 0 -12 24 -11 94 2 173 32 268 134 268
288 0 86 -23 141 -79 191 -84 74 -126 83 -390 88 -165 3 -233 1 -233 -7 0 -7
26 -11 70 -11 l70 0 0 -534 0 -533 -70 -7 c-109 -11 -83 -26 45 -26 l115 0 0
-582 c0 -320 -2 -579 -5 -577 -2 3 -191 270 -419 595 l-414 589 -86 3 c-47 1
-86 5 -86 7 0 7 411 1008 420 1024 6 10 10 11 10 4 0 -25 69 -920 75 -980 l7
-63 -66 0 c-35 0 -68 -4 -71 -10 -4 -6 47 -10 144 -10 94 0 151 4 151 10 0 6
-30 10 -69 10 l-69 0 -7 63 c-9 94 -75 964 -75 992 0 25 1 25 85 25 52 0 85 4
85 10 0 7 -36 10 -101 8 l-101 -3 -219 -534 c-121 -294 -220 -536 -222 -537
-1 -2 -95 240 -207 537 l-205 539 -97 0 c-59 0 -98 -4 -98 -10 0 -6 35 -10 86
-10 l86 0 -6 -47 c-3 -27 -24 -250 -46 -498 -22 -247 -43 -467 -46 -487 l-6
-38 -84 0 c-46 0 -84 -4 -84 -9 0 -14 39 -21 113 -21 l68 0 -3 -517 -3 -518
-27 -77 c-48 -144 -117 -225 -242 -284 -97 -46 -147 -52 -233 -26 -161 49
-259 148 -314 317 -23 69 -23 79 -27 588 l-3 517 275 0 276 0 6 28 c3 15 17
70 30 122 21 87 23 113 8 97 -3 -3 -18 -54 -33 -114 l-27 -108 -80 -3 c-43 -2
-166 0 -271 3 l-193 7 0 274 0 274 200 0 200 0 0 -76 c0 -47 4 -73 10 -69 6 4
10 67 10 156 0 93 -4 149 -10 149 -6 0 -10 -30 -10 -70 l0 -70 -200 0 -200 0
0 250 0 250 266 0 265 0 -1 -87 c-1 -49 0 -92 1 -98 4 -19 17 91 18 148 l1 57
-355 0 c-230 0 -355 -4 -355 -10 0 -6 30 -10 70 -10 l70 0 0 -535 0 -535 -345
0 -345 0 0 535 0 535 224 0 223 0 7 -37 c3 -21 6 -62 6 -90 0 -31 4 -53 11
-53 12 0 1 240 -12 254 -5 6 -9 -3 -9 -22 l0 -32 -459 0 -460 0 -3 33 c-2 17
-6 28 -9 22z m2359 -622 c106 -280 192 -511 192 -515 0 -5 -111 -8 -246 -8
l-246 0 5 33 c3 17 25 249 49 515 23 265 45 482 48 482 4 0 93 -228 198 -507z
m-1678 -1207 c0 -687 -6 -815 -41 -946 -43 -158 -133 -274 -239 -305 -16 -4
-8 4 22 25 81 54 139 149 182 295 19 67 20 101 23 820 2 413 5 756 8 763 2 6
14 12 25 12 20 0 20 -3 20 -664z m1550 161 c0 -465 -1 -510 -19 -579 -11 -42
-32 -100 -47 -129 -35 -71 -126 -159 -196 -192 -70 -33 -87 -35 -31 -3 112 64
175 144 220 279 l28 82 3 510 c1 281 5 516 7 523 2 6 11 12 20 12 13 0 15 -58
15 -503z m400 487 c0 -8 -4 -12 -10 -9 -5 3 -10 10 -10 16 0 5 5 9 10 9 6 0
10 -7 10 -16z m60 0 c0 -8 -4 -12 -10 -9 -5 3 -10 10 -10 16 0 5 5 9 10 9 6 0
10 -7 10 -16z m70 -5 c0 -18 -2 -19 -15 -9 -8 7 -15 16 -15 21 0 5 7 9 15 9 9
0 15 -9 15 -21z m970 -651 c0 -670 -1 -673 -20 -648 -19 24 -20 45 -20 667 0
647 0 649 33 652 4 1 7 -302 7 -671z m60 -45 l0 -718 -20 30 c-19 29 -20 48
-20 718 0 680 0 687 20 687 20 0 20 -7 20 -717z m384 711 c14 -6 16 -79 16
-725 0 -712 0 -719 -20 -719 -20 0 -20 7 -20 725 0 399 2 725 4 725 2 0 11 -3
20 -6z m-3614 -646 c0 -796 -8 -905 -80 -1065 -42 -93 -127 -177 -200 -198
-17 -5 -11 2 19 23 83 56 143 154 184 300 21 75 21 94 25 830 l3 752 24 0 25
0 0 -642z m60 -10 c0 -813 -7 -900 -85 -1063 -47 -98 -118 -167 -195 -190 -16
-4 -8 4 22 25 83 55 146 161 184 305 16 64 18 135 21 823 l4 752 24 0 25 0 0
-652z m443 140 c4 -449 6 -520 21 -573 40 -136 109 -235 206 -296 65 -41 35
-36 -36 7 -84 50 -130 99 -170 179 -60 122 -64 169 -64 711 0 470 1 484 19
484 19 0 19 -16 24 -512z m60 0 c4 -448 6 -521 22 -573 38 -133 101 -225 199
-291 67 -45 46 -44 -30 2 -79 47 -126 95 -162 163 -65 121 -65 124 -69 694 -4
509 -4 517 16 517 19 0 19 -11 24 -512z m67 5 c0 -415 3 -520 15 -571 30 -127
99 -230 199 -298 66 -44 47 -44 -30 1 -106 63 -170 150 -212 288 -13 44 -16
135 -19 570 l-4 517 25 0 26 0 0 -507z m920 18 c0 -541 -3 -577 -62 -700 -39
-81 -122 -166 -200 -204 -76 -36 -86 -34 -20 4 103 59 177 161 219 304 15 53
17 122 21 573 3 499 4 512 23 512 19 0 19 -12 19 -489z m60 -3 c0 -540 -3
-568 -59 -692 -38 -83 -123 -172 -203 -209 -76 -36 -86 -34 -20 4 103 59 177
161 219 304 15 53 18 120 21 573 3 500 3 512 23 512 19 0 19 -11 19 -492z
m1500 -135 l0 -628 -20 30 c-19 29 -20 48 -20 628 0 590 0 597 20 597 20 0 20
-7 20 -627z m580 -93 c0 -713 0 -720 -20 -720 -20 0 -20 7 -20 720 0 713 0
720 20 720 20 0 20 -7 20 -720z m60 0 c0 -713 0 -720 -20 -720 -20 0 -20 7
-20 720 0 713 0 720 20 720 20 0 20 -7 20 -720z m-1680 -28 c0 -655 -1 -693
-17 -690 -17 3 -18 46 -20 718 -3 712 -3 715 17 690 19 -24 20 -45 20 -718z
m60 663 l0 -30 -20 30 c-11 17 -20 41 -20 55 l0 25 20 -25 c11 -14 20 -38 20
-55z m49 41 c21 -34 28 -66 13 -66 -12 0 -42 56 -42 79 0 29 5 27 29 -13z
m457 -561 c309 -440 409 -588 412 -615 l4 -35 -18 25 c-10 14 -200 283 -421
599 -277 395 -403 582 -403 599 0 16 4 22 9 17 5 -6 193 -271 417 -590z m-506
-187 c0 -613 -1 -649 -17 -646 -17 3 -18 44 -20 673 -2 668 -2 670 17 646 19
-23 20 -41 20 -673z m50 660 c11 -18 20 -42 20 -53 -1 -18 -3 -17 -25 8 -14
15 -25 39 -25 53 0 32 6 30 30 -8z m464 -572 c279 -398 406 -587 406 -604 0
-16 -4 -22 -9 -16 -5 5 -192 270 -417 589 -256 364 -409 591 -412 610 -4 27
-3 28 11 15 8 -8 198 -275 421 -594z m-465 490 c21 -33 21 -40 19 -627 -3
-586 -3 -594 -23 -594 -20 0 -20 8 -23 628 -1 345 0 627 2 627 2 0 14 -15 25
-34z m460 -569 c315 -449 412 -593 409 -612 -2 -19 -83 90 -383 517 -479 681
-455 646 -455 676 0 15 4 22 9 17 4 -6 194 -274 420 -598z m471 -524 l0 -28
-20 25 c-11 14 -20 38 -20 54 l0 29 20 -26 c11 -14 20 -38 20 -54z m0 -87 l0
-29 -20 26 c-11 14 -20 38 -20 54 l0 28 20 -25 c11 -14 20 -38 20 -54z m60 -1
l0 -30 -20 30 c-11 17 -20 41 -20 55 l0 25 20 -25 c11 -14 20 -38 20 -55z"/>
<path d="M7197 3368 c-8 -13 -99 -260 -203 -550 l-189 -528 -89 0 c-111 0
-154 19 -225 96 -49 54 -163 226 -235 357 -33 61 -35 68 -19 73 91 29 143 62
176 112 39 57 50 106 45 193 -4 64 -10 87 -34 126 -36 58 -110 105 -190 122
-72 14 -504 15 -504 1 0 -6 30 -10 70 -10 l70 0 0 -529 0 -528 -88 -6 c-307
-20 -530 -195 -620 -489 -26 -84 -45 -254 -37 -333 28 -281 169 -501 390 -610
101 -50 172 -66 330 -72 290 -12 462 41 610 186 148 145 217 330 217 576 -1
302 -143 549 -387 671 -96 47 -161 64 -287 71 l-108 6 0 248 0 249 133 0 c72
0 141 3 152 5 17 4 28 -9 65 -77 69 -125 212 -338 255 -380 64 -61 116 -81
228 -86 l97 -4 0 -719 0 -719 -92 -1 c-77 -1 -86 -3 -53 -10 52 -10 468 -10
520 0 31 7 17 9 -67 10 l-108 1 0 350 0 351 111 -3 111 -3 70 -125 c157 -283
280 -460 354 -511 87 -60 128 -69 292 -68 l147 1 -75 13 c-138 23 -207 75
-318 239 -92 135 -272 446 -272 470 0 2 25 12 55 22 168 52 263 194 253 378
-8 141 -62 231 -178 295 l-55 31 118 0 c71 0 117 4 117 10 0 6 -28 10 -63 10
l-64 0 -199 555 c-109 305 -202 555 -206 555 -4 0 -14 -10 -21 -22z m-914 -31
c53 -25 117 -85 138 -132 21 -46 25 -139 8 -200 -14 -53 -98 -134 -164 -159
-39 -15 -84 -20 -212 -24 l-163 -4 0 272 0 272 178 -4 c138 -4 185 -8 215 -21z
m934 -605 c-121 -1 -222 0 -225 2 -4 4 96 290 201 575 l20 54 112 -314 112
-314 -220 -3z m306 -234 c42 -116 76 -213 74 -214 -7 -7 -767 4 -767 12 0 6
141 397 146 406 3 4 110 8 238 8 l233 0 76 -212z m-523 -593 c0 -358 0 -365
-20 -365 -20 0 -20 7 -20 365 0 358 0 365 20 365 20 0 20 -7 20 -365z m240
355 c192 -31 310 -161 310 -344 0 -231 -144 -359 -421 -373 l-109 -6 0 367 0
366 78 0 c42 0 106 -5 142 -10z m-1213 -16 c80 -26 187 -100 258 -176 75 -81
141 -206 171 -323 23 -91 23 -290 0 -392 -56 -252 -215 -440 -429 -508 -91
-29 -142 -31 -218 -9 -223 66 -399 257 -465 509 -27 101 -24 311 5 420 59 223
199 393 389 471 71 29 214 33 289 8z m853 -344 c0 -353 0 -360 -20 -360 -20 0
-20 7 -20 360 0 353 0 360 20 360 20 0 20 -7 20 -360z m60 0 c0 -353 0 -360
-20 -360 -20 0 -20 7 -20 360 0 353 0 360 20 360 20 0 20 -7 20 -360z m-1385
323 c-124 -64 -227 -173 -291 -308 -87 -183 -103 -425 -43 -622 56 -181 159
-314 316 -409 75 -45 59 -43 -31 3 -109 57 -220 173 -280 294 -67 137 -80 197
-80 364 0 114 4 155 22 223 56 208 176 362 346 448 38 18 74 34 80 34 6 -1
-11 -13 -39 -27z m54 -4 c-122 -66 -216 -165 -279 -294 -115 -233 -113 -538 6
-765 61 -117 146 -206 261 -276 75 -45 59 -43 -31 3 -100 52 -218 172 -273
279 -69 132 -88 215 -87 379 0 167 22 265 87 390 56 109 173 227 276 278 89
44 119 49 40 6z m60 0 c-122 -66 -217 -166 -279 -294 -116 -241 -111 -544 13
-780 42 -79 169 -211 248 -258 82 -48 68 -48 -25 0 -110 58 -220 173 -278 293
-69 141 -82 199 -82 365 1 165 20 252 85 385 56 113 170 230 278 283 89 44
119 49 40 6z m455 11 c134 -57 263 -184 332 -325 63 -130 78 -203 77 -365 -1
-159 -20 -246 -84 -378 -63 -131 -221 -278 -329 -306 -14 -4 0 7 30 25 72 43
198 170 237 239 78 140 108 283 100 472 -6 143 -22 211 -79 328 -34 69 -60
102 -133 175 -56 57 -113 103 -150 123 -68 36 -69 41 -1 12z m95 -17 c107 -53
232 -177 289 -289 68 -132 86 -215 85 -379 0 -166 -20 -253 -85 -385 -56 -114
-169 -229 -279 -283 -96 -47 -113 -48 -31 -1 224 127 352 368 353 665 0 130
-13 209 -52 309 -64 166 -167 286 -320 370 -76 42 -50 37 40 -7z m60 1 c105
-51 230 -176 289 -290 68 -133 87 -215 86 -379 -1 -165 -20 -252 -85 -385 -56
-115 -169 -228 -282 -284 -90 -44 -113 -45 -29 -1 70 37 179 138 228 213 86
129 125 276 125 467 0 296 -133 533 -372 665 -75 41 -52 37 40 -6z m1205 10
c72 -34 137 -105 165 -177 29 -79 29 -195 0 -274 -25 -68 -114 -163 -169 -181
-35 -11 -35 -11 -10 6 60 41 92 78 122 140 31 62 33 73 33 172 0 92 -3 112
-26 160 -35 74 -71 115 -133 150 -63 37 -55 39 18 4z m51 5 c55 -24 129 -89
153 -133 48 -89 57 -226 21 -322 -25 -66 -83 -134 -146 -171 -60 -35 -62 -25
-5 18 125 92 169 297 98 455 -31 69 -69 110 -136 148 -55 31 -49 33 15 5z
m-111 -4 c61 -26 140 -112 165 -178 29 -79 29 -195 0 -274 -24 -66 -113 -162
-167 -181 -18 -6 -32 -10 -32 -8 0 2 18 15 40 30 51 33 104 114 126 191 18 63
15 164 -6 237 -17 58 -71 130 -124 166 -54 36 -55 39 -2 17z m-10 -800 c72
-133 150 -263 239 -394 52 -76 87 -116 130 -147 33 -24 55 -44 51 -44 -21 0
-113 62 -150 102 -93 97 -366 550 -349 578 13 21 25 6 79 -95z m32 53 c69
-138 233 -406 313 -512 20 -26 60 -66 90 -87 30 -21 51 -39 47 -39 -19 0 -93
46 -131 81 -69 64 -212 281 -331 504 -50 95 -54 105 -35 105 15 0 28 -15 47
-52z m-566 -308 c0 -343 0 -350 -20 -350 -20 0 -20 7 -20 350 0 343 0 350 20
350 20 0 20 -7 20 -350z m60 0 c0 -343 0 -350 -20 -350 -20 0 -20 7 -20 350 0
343 0 350 20 350 20 0 20 -7 20 -350z m60 0 c0 -343 0 -350 -20 -350 -20 0
-20 7 -20 350 0 343 0 350 20 350 20 0 20 -7 20 -350z m316 323 c83 -154 172
-302 251 -421 77 -117 106 -151 155 -188 66 -49 68 -55 7 -23 -107 54 -234
226 -412 557 -49 89 -53 102 -36 102 11 0 26 -12 35 -27z"/>
</g>
</svg>
