<svg width="161" height="67" viewBox="0 0 161 67" fill="none" xmlns="http://www.w3.org/2000/svg">
<path d="M14.0364 6.03C13.9641 6.12054 13.8555 7.26135 13.7832 8.54703C13.6927 10.2311 13.7108 10.8468 13.8555 10.7562C13.9641 10.6838 14.0545 10.1949 14.0545 9.68784C14.0545 9.1627 14.1088 8.43838 14.163 8.05811L14.2897 7.38811H18.3237H22.3759V17.0759V26.7457L21.0734 26.8C19.2101 26.8724 19.4996 27.1984 21.4714 27.2708L23.0994 27.3251V38.86C23.0994 53.6543 22.9547 55.447 21.5256 58.4168C20.7839 59.9378 19.3187 61.4046 18.2333 61.7305C17.6544 61.9116 17.4373 61.8935 16.9308 61.64C16.3338 61.3322 15.9359 61.4046 16.4062 61.7305C16.6052 61.8754 16.5509 61.8935 16.2253 61.7849C15.972 61.7305 15.6645 61.5857 15.5379 61.477C15.4112 61.3865 15.2484 61.3503 15.1942 61.4227C15.1218 61.4951 15.1761 61.64 15.3208 61.7305C15.5198 61.8754 15.4655 61.8935 15.1399 61.7849C14.8866 61.7305 14.5791 61.5857 14.4525 61.477C14.3259 61.3865 14.163 61.3503 14.1088 61.4227C14.0364 61.4951 14.0907 61.6219 14.2354 61.7124C14.6515 61.9841 14.3078 61.9297 13.5842 61.6219C13.1138 61.4227 12.9691 61.4227 13.0053 61.5857C13.0596 61.6943 13.4937 61.9478 13.9821 62.1108C14.7057 62.3824 15.3932 62.4368 17.8534 62.3824C20.6573 62.3462 20.8925 62.31 21.8693 61.8573C23.805 60.9519 25.1979 59.0505 26.03 56.0808C26.4099 54.777 26.428 54.3243 26.5184 40.9787L26.627 27.2165L29.3766 27.1622L32.1263 27.1078L32.1806 36.4878C32.2529 44.6365 32.3072 46.0127 32.5605 46.9543C33.5554 50.4673 35.7081 52.6041 39.0909 53.4732C40.6105 53.8535 44.0475 53.9984 46.1098 53.763C50.3428 53.2741 52.8935 51.3003 54.1598 47.5338L54.6663 46.0489L54.7206 36.5784L54.7748 27.1259H57.6692H60.5455V40.2543V53.3827L58.8812 53.4008C57.4883 53.4189 57.3255 53.4551 57.9225 53.5819C58.8632 53.763 65.8459 53.763 66.7865 53.5819C67.4016 53.4551 67.2569 53.4189 65.9182 53.4008C64.8328 53.3827 64.3082 53.3103 64.2539 53.1473C64.1997 53.0387 64.1816 48.24 64.1997 42.5178L64.2539 32.1238L71.7612 42.8438C75.8857 48.7289 79.3771 53.5638 79.5037 53.5638C79.6123 53.5638 79.7208 53.3465 79.7208 53.0568L79.7389 52.5678L80.0464 53.0568C80.2092 53.3465 80.4444 53.5638 80.571 53.5638C80.6977 53.5638 80.8062 53.3465 80.8062 53.0568L80.8243 52.5678L81.1318 53.0568C81.2946 53.3465 81.5298 53.5638 81.6564 53.5638C81.783 53.5638 81.8916 53.3465 81.8916 53.0568L81.9097 52.5678L82.2172 53.0749C82.977 54.3062 82.977 54.2519 82.977 40.3449V27.1259H85.8714H88.7657V40.2543V53.3827L87.1015 53.4008C85.7086 53.4189 85.5457 53.4551 86.1427 53.5819C87.0834 53.763 94.0661 53.763 95.0068 53.5819C95.6037 53.4551 95.4409 53.4189 94.0661 53.4008L92.3837 53.3827V40.3449V27.307H97.5393H102.695L102.803 26.8C102.858 26.5284 103.111 25.5324 103.346 24.5908C103.726 23.0154 103.762 22.5446 103.491 22.8343C103.437 22.8887 103.165 23.8122 102.894 24.8987L102.406 26.8543L100.597 26.9087C99.6197 26.9449 97.3946 26.9087 95.6942 26.8543L92.5646 26.7276V21.7659V16.8043H96.1826H99.8006V18.1805C99.8006 19.0316 99.8729 19.5024 99.9815 19.43C100.09 19.3576 100.162 18.2168 100.162 16.6051C100.162 14.9211 100.09 13.907 99.9815 13.907C99.8729 13.907 99.8006 14.4503 99.8006 15.1746V16.4422H96.1826H92.5646V11.9151V7.38811H97.3765H102.17L102.152 8.96352C102.134 9.85081 102.152 10.6295 102.17 10.7381C102.243 11.0822 102.478 9.09027 102.496 8.05811L102.514 7.02595H96.0921C91.9315 7.02595 89.6702 7.09838 89.6702 7.20703C89.6702 7.31568 90.2129 7.38811 90.9365 7.38811H92.2028V17.0759V26.7638H85.1478H78.0927V17.0578V7.35189L80.8605 7.42433C83.4111 7.47865 83.6825 7.53297 84.6955 7.98568C86.9929 9.05406 87.8793 10.6657 87.4633 13.0016C87.0653 15.2651 85.1659 16.7862 82.3077 17.1122C81.783 17.1665 81.3489 17.2932 81.3489 17.3657C81.3489 17.583 81.783 17.5649 83.0493 17.3295C86.1789 16.75 87.8974 14.903 87.8974 12.1143C87.8974 10.557 87.4814 9.56108 86.4683 8.65568C84.9488 7.31568 84.189 7.1527 79.4133 7.06216C76.4284 7.00784 75.1983 7.04406 75.1983 7.18892C75.1983 7.31568 75.6687 7.38811 76.4646 7.38811H77.7309V17.0578V26.7095L76.4646 26.8362C74.4928 27.0354 74.9632 27.307 77.2787 27.307H79.359V37.8459C79.359 43.6405 79.3228 48.3305 79.2686 48.2943C79.2324 48.24 75.8134 43.4051 71.6889 37.52L64.1997 26.8543L62.6439 26.8C61.7937 26.7819 61.0882 26.7095 61.0882 26.6732C61.0882 26.5465 68.5232 8.42027 68.686 8.13054C68.7945 7.94946 68.8669 7.93135 68.8669 8.05811C68.8669 8.51081 70.1151 24.7176 70.2236 25.8041L70.3502 26.9449H69.1563C68.5232 26.9449 67.9262 27.0173 67.8719 27.1259C67.7996 27.2346 68.7221 27.307 70.4769 27.307C72.1773 27.307 73.2084 27.2346 73.2084 27.1259C73.2084 27.0173 72.6657 26.9449 71.9602 26.9449H70.712L70.5854 25.8041C70.4226 24.1019 69.2287 8.34784 69.2287 7.84081C69.2287 7.38811 69.2468 7.38811 70.7663 7.38811C71.707 7.38811 72.3039 7.31568 72.3039 7.20703C72.3039 7.08027 71.6527 7.02595 70.4769 7.06216L68.6498 7.11649L64.6881 16.7862C62.4992 22.11 60.7083 26.4922 60.6721 26.5103C60.6541 26.5465 58.9536 22.1643 56.9275 16.7862L53.2191 7.02595H51.4644C50.3971 7.02595 49.6916 7.09838 49.6916 7.20703C49.6916 7.31568 50.3247 7.38811 51.2473 7.38811H52.803L52.6945 8.23919C52.6402 8.72811 52.2603 12.7662 51.8624 17.257C51.4644 21.7297 51.0845 25.7135 51.0302 26.0757L50.9217 26.7638H49.4021C48.57 26.7638 47.8826 26.8362 47.8826 26.9268C47.8826 27.1803 48.5881 27.307 49.9268 27.307H51.1569L51.1026 36.6689L51.0483 46.0489L50.5599 47.4432C49.6916 50.0508 48.4434 51.5176 46.1821 52.5859C44.4274 53.4189 43.5229 53.5276 41.9672 53.0568C39.0547 52.1695 37.2819 50.3768 36.287 47.3165C35.8709 46.067 35.8709 45.8859 35.7986 36.6689L35.7443 27.307H40.719H45.7118L45.8203 26.8C45.8746 26.5284 46.1279 25.5324 46.363 24.5908C46.7429 23.0154 46.7791 22.5446 46.5078 22.8343C46.4535 22.8887 46.1821 23.8122 45.9108 24.8987L45.4224 26.8543L43.9752 26.9087C43.1973 26.9449 40.9723 26.9087 39.0728 26.8543L35.5815 26.7276V21.7659V16.8043H39.1994H42.8174V18.1805C42.8174 19.0316 42.8898 19.5024 42.9983 19.43C43.1069 19.3576 43.1792 18.2168 43.1792 16.6051C43.1792 14.9211 43.1069 13.907 42.9983 13.907C42.8898 13.907 42.8174 14.4503 42.8174 15.1746V16.4422H39.1994H35.5815V11.9151V7.38811H40.3934H45.1872L45.1691 8.96352C45.151 9.85081 45.1691 10.6295 45.1872 10.7381C45.2596 11.0822 45.4947 9.09027 45.5128 8.05811L45.5309 7.02595H39.109C34.9483 7.02595 32.6871 7.09838 32.6871 7.20703C32.6871 7.31568 33.2298 7.38811 33.9534 7.38811H35.2197V17.0759V26.7638H28.9787H22.7376V17.0759V7.38811H26.7898H30.8238L30.9505 8.05811C31.0047 8.43838 31.059 9.18081 31.059 9.68784C31.059 10.2492 31.1314 10.6476 31.258 10.6476C31.4751 10.6476 31.2761 6.30162 31.0409 6.04811C30.9505 5.93946 30.8781 6.10243 30.8781 6.44649V7.02595H22.5748H14.2535L14.1992 6.42838C14.163 6.12054 14.0907 5.92135 14.0364 6.03ZM56.7105 17.2932C58.628 22.3635 60.1837 26.5465 60.1837 26.6189C60.1837 26.7095 58.1757 26.7638 55.7336 26.7638H51.2835L51.3739 26.1662C51.4282 25.8584 51.8262 21.6573 52.2603 16.8405C52.6764 12.0419 53.0744 8.11243 53.1287 8.11243C53.201 8.11243 54.811 12.2411 56.7105 17.2932ZM26.3556 39.1497C26.3556 51.59 26.2471 53.9078 25.6139 56.28C24.8361 59.1411 23.208 61.2416 21.2905 61.803C21.001 61.8754 21.1457 61.7305 21.6884 61.3503C23.1537 60.3724 24.2029 58.6522 24.9808 56.0084C25.3245 54.7951 25.3426 54.1795 25.3969 41.1597C25.433 33.6811 25.4873 27.47 25.5416 27.3432C25.5778 27.2346 25.7948 27.1259 25.9938 27.1259C26.3556 27.1259 26.3556 27.1803 26.3556 39.1497ZM54.395 36.2343C54.395 44.6546 54.3769 45.4695 54.0512 46.7189C53.8523 47.4795 53.4724 48.5297 53.201 49.0549C52.5679 50.3405 50.9217 51.9341 49.6554 52.5316C48.3891 53.1292 48.0816 53.1654 49.0946 52.5859C51.1207 51.427 52.2603 49.9784 53.0744 47.5338L53.5809 46.0489L53.6352 36.8138C53.6533 31.7254 53.7256 27.47 53.7618 27.3432C53.798 27.2346 53.9608 27.1259 54.1236 27.1259C54.3588 27.1259 54.395 28.1762 54.395 36.2343ZM61.6309 27.4157C61.6309 27.5605 61.5586 27.633 61.45 27.5787C61.3596 27.5243 61.2691 27.3976 61.2691 27.2889C61.2691 27.1984 61.3596 27.1259 61.45 27.1259C61.5586 27.1259 61.6309 27.2527 61.6309 27.4157ZM62.7163 27.4157C62.7163 27.5605 62.6439 27.633 62.5354 27.5787C62.445 27.5243 62.3545 27.3976 62.3545 27.2889C62.3545 27.1984 62.445 27.1259 62.5354 27.1259C62.6439 27.1259 62.7163 27.2527 62.7163 27.4157ZM63.9826 27.5062C63.9826 27.8322 63.9464 27.8503 63.7112 27.6692C63.5665 27.5424 63.4399 27.3795 63.4399 27.2889C63.4399 27.1984 63.5665 27.1259 63.7112 27.1259C63.8741 27.1259 63.9826 27.2889 63.9826 27.5062ZM81.5298 39.2946C81.5298 51.427 81.5117 51.4814 81.168 51.0287C80.8243 50.5941 80.8062 50.2138 80.8062 38.9505C80.8062 27.2346 80.8062 27.1984 81.4032 27.1441C81.4755 27.1259 81.5298 32.6127 81.5298 39.2946ZM82.6152 40.1095V53.1111L82.2534 52.5678C81.9097 52.0427 81.8916 51.6987 81.8916 39.5662C81.8916 27.2527 81.8916 27.1259 82.2534 27.1259C82.6152 27.1259 82.6152 27.2527 82.6152 40.1095ZM89.5617 27.2346C89.815 27.3432 89.8511 28.6651 89.8511 40.363C89.8511 53.2559 89.8511 53.3827 89.4893 53.3827C89.1275 53.3827 89.1275 53.2559 89.1275 40.2543C89.1275 33.0292 89.1637 27.1259 89.1999 27.1259C89.2361 27.1259 89.3989 27.1803 89.5617 27.2346ZM24.1848 38.9324C24.1848 53.3465 24.0401 55.3203 22.7376 58.2176C21.9779 59.9016 20.4402 61.4227 19.1197 61.803C18.8121 61.8935 18.9207 61.7668 19.4634 61.3865C20.9648 60.3724 22.0502 58.5978 22.7919 55.9541C23.1718 54.5959 23.1718 54.2519 23.2442 40.9243L23.2984 27.307H23.7326H24.1848V38.9324ZM25.2702 39.1135C25.2702 53.8354 25.1436 55.4108 23.7326 58.3624C22.8824 60.137 21.598 61.3865 20.2051 61.803C19.9156 61.8754 20.0603 61.7305 20.603 61.3503C22.1045 60.3543 23.2442 58.4349 23.9316 55.8273C24.221 54.6684 24.2572 53.3827 24.3115 40.9243L24.3838 27.307H24.818H25.2702V39.1135ZM33.2841 36.5784C33.3564 44.7089 33.3926 45.9946 33.6639 46.9543C34.3875 49.417 35.6357 51.2097 37.3905 52.3143C38.5663 53.0568 38.0236 52.9662 36.7392 52.1876C35.2197 51.2822 34.3875 50.3949 33.6639 48.9462C32.5786 46.737 32.5062 45.8859 32.5062 36.0714C32.5062 27.5605 32.5243 27.307 32.8499 27.307C33.1936 27.307 33.1936 27.5968 33.2841 36.5784ZM34.3694 36.5784C34.4418 44.6908 34.478 46.0127 34.7674 46.9543C35.4548 49.3627 36.5945 51.0287 38.3673 52.2238C39.5793 53.0387 39.1994 53.0205 37.8246 52.1876C36.3955 51.3365 35.5453 50.4673 34.8941 49.2359C33.7182 47.0449 33.7182 46.9905 33.6459 36.6689C33.5735 27.4519 33.5735 27.307 33.9353 27.307C34.279 27.307 34.279 27.5062 34.3694 36.5784ZM35.5815 36.4878C35.5815 44.0027 35.6357 45.9041 35.8528 46.8276C36.3955 49.1273 37.6437 50.9924 39.4527 52.2238C40.6466 53.0205 40.3029 53.0205 38.91 52.2057C36.9925 51.0649 35.8347 49.4895 35.075 46.9905C34.8398 46.1938 34.7855 44.5459 34.7312 36.6689L34.6589 27.307H35.1111H35.5815V36.4878ZM52.2242 36.1619C52.2242 45.9584 52.1699 46.6103 51.1026 48.8376C50.3971 50.3043 48.8956 51.8435 47.4846 52.5316C46.1098 53.1835 45.9289 53.1473 47.1228 52.4592C48.9861 51.3908 50.3247 49.5438 51.0845 46.9543C51.3559 45.9946 51.392 44.7451 51.4644 36.5784C51.5187 27.5424 51.5368 27.307 51.8805 27.307C52.2242 27.307 52.2242 27.5243 52.2242 36.1619ZM53.3096 36.2162C53.3096 45.9946 53.2553 46.5016 52.2423 48.747C51.5548 50.25 50.0172 51.8616 48.57 52.5316C47.1952 53.1835 47.0143 53.1473 48.2082 52.4592C50.0715 51.3908 51.4101 49.5438 52.1699 46.9543C52.4412 45.9946 52.4955 44.7814 52.5498 36.5784C52.6041 27.5243 52.6041 27.307 52.9659 27.307C53.3096 27.307 53.3096 27.5062 53.3096 36.2162ZM80.4444 38.6608V50.0327L80.0826 49.4895C79.7389 48.9643 79.7208 48.6203 79.7208 38.1176C79.7208 27.4338 79.7208 27.307 80.0826 27.307C80.4444 27.307 80.4444 27.4338 80.4444 38.6608ZM90.9365 40.3449C90.9365 53.2559 90.9365 53.3827 90.5747 53.3827C90.2129 53.3827 90.2129 53.2559 90.2129 40.3449C90.2129 27.4338 90.2129 27.307 90.5747 27.307C90.9365 27.307 90.9365 27.4338 90.9365 40.3449ZM92.0219 40.3449C92.0219 53.2559 92.0219 53.3827 91.6601 53.3827C91.2983 53.3827 91.2983 53.2559 91.2983 40.3449C91.2983 27.4338 91.2983 27.307 91.6601 27.307C92.0219 27.307 92.0219 27.4338 92.0219 40.3449ZM61.6309 40.8519C61.6309 52.7127 61.6128 53.4008 61.3234 53.3465C61.0159 53.2922 60.9978 52.5135 60.9616 40.3449C60.9073 27.4519 60.9073 27.3976 61.2691 27.8503C61.6128 28.2849 61.6309 28.6651 61.6309 40.8519ZM62.7163 28.8462V29.3895L62.3545 28.8462C62.1555 28.5384 61.9927 28.1038 61.9927 27.8503V27.3976L62.3545 27.8503C62.5535 28.1038 62.7163 28.5384 62.7163 28.8462ZM63.6027 28.1038C63.9826 28.7195 64.1092 29.2989 63.8379 29.2989C63.6208 29.2989 63.0781 28.2849 63.0781 27.8684C63.0781 27.3432 63.1686 27.3795 63.6027 28.1038ZM71.8698 38.2624C77.4596 46.23 79.2686 48.91 79.3228 49.3989L79.3952 50.0327L79.0696 49.58C78.8887 49.3265 75.4516 44.4554 71.4537 38.7332C66.4428 31.5805 64.1635 28.1943 64.1635 27.8865C64.1635 27.5968 64.2359 27.4881 64.3263 27.5787C64.4168 27.6873 67.8177 32.4859 71.8698 38.2624ZM62.7163 41.6487C62.7163 52.7489 62.6982 53.4008 62.4088 53.3465C62.1012 53.2922 62.0832 52.5497 62.047 41.1597C62.0108 29.0635 62.0108 29.0273 62.3545 29.4619C62.6982 29.8784 62.7163 30.2043 62.7163 41.6487ZM63.6208 29.6973C63.8198 30.0232 63.9826 30.4578 63.9826 30.657C63.9645 30.983 63.9283 30.9649 63.5303 30.5122C63.2771 30.2405 63.0781 29.8059 63.0781 29.5524C63.0781 28.973 63.1866 29.0092 63.6208 29.6973ZM72.0145 40.0551C77.0616 47.2622 79.359 50.6846 79.359 50.9924C79.359 51.2822 79.2866 51.3908 79.1962 51.2822C79.1057 51.1916 75.7229 46.393 71.6527 40.6165C67.0217 34.0251 64.2539 29.9146 64.1997 29.5705C64.1273 29.0816 64.1454 29.0635 64.3987 29.2989C64.5434 29.4438 67.9805 34.2787 72.0145 40.0551ZM63.6027 31.1822C63.9826 31.7797 63.9826 31.9065 63.9464 42.5359C63.8921 53.1473 63.8921 53.2922 63.5303 53.2922C63.1686 53.2922 63.1686 53.1473 63.1143 41.9203C63.0962 35.673 63.1143 30.5665 63.1505 30.5665C63.1866 30.5665 63.4037 30.8381 63.6027 31.1822ZM71.9241 41.4857C77.6224 49.6162 79.3771 52.2238 79.3228 52.5678C79.2866 52.9119 77.8214 50.9381 72.3944 43.2059C63.7293 30.8743 64.1635 31.5081 64.1635 30.9649C64.1635 30.6932 64.2359 30.5665 64.3263 30.657C64.3987 30.7657 67.8357 35.6187 71.9241 41.4857ZM80.4444 50.9743V51.4814L80.0826 51.0287C79.8836 50.7751 79.7208 50.3405 79.7208 50.0508V49.5257L80.0826 49.9965C80.2816 50.25 80.4444 50.6846 80.4444 50.9743ZM80.4444 52.5497V53.0749L80.0826 52.6041C79.8836 52.3505 79.7208 51.9159 79.7208 51.6262V51.1192L80.0826 51.5719C80.2816 51.8254 80.4444 52.26 80.4444 52.5497ZM81.5298 52.5678V53.1111L81.168 52.5678C80.969 52.26 80.8062 51.8254 80.8062 51.5719V51.1192L81.168 51.5719C81.367 51.8254 81.5298 52.26 81.5298 52.5678Z" fill="black"/>
<path d="M132.489 7.24328C132.344 7.47868 130.698 11.9514 128.817 17.2027L125.398 26.7638H123.788C121.78 26.7638 121.002 26.4198 119.717 25.0254C118.831 24.0476 116.769 20.933 115.466 18.5608C114.869 17.4563 114.833 17.3295 115.123 17.239C116.769 16.7138 117.709 16.1163 118.306 15.2108C119.012 14.1787 119.211 13.2914 119.12 11.716C119.048 10.5571 118.94 10.1406 118.505 9.43436C117.854 8.38409 116.515 7.53301 115.068 7.22517C113.766 6.97166 105.951 6.95355 105.951 7.20706C105.951 7.31571 106.494 7.38814 107.217 7.38814H108.484V16.9673V26.5284L106.892 26.6371C101.338 26.9992 97.304 30.1681 95.6759 35.4919C95.2056 37.013 94.8619 40.0914 95.0066 41.5219C95.5131 46.6103 98.0638 50.5941 102.062 52.5679C103.889 53.4733 105.173 53.763 108.031 53.8717C113.277 54.089 116.389 53.1292 119.066 50.5035C121.743 47.8779 122.992 44.5279 122.992 40.0733C122.974 34.6046 120.405 30.1319 115.991 27.9227C114.254 27.0717 113.078 26.7638 110.799 26.6371L108.845 26.5284V22.0376V17.5287H111.251C112.554 17.5287 113.802 17.4744 114.001 17.4381C114.308 17.3657 114.507 17.6011 115.177 18.8325C116.425 21.096 119.012 24.953 119.79 25.7135C120.947 26.8181 121.888 27.1803 123.914 27.2708L125.669 27.3433V40.363V53.3827L124.005 53.4008C122.612 53.419 122.449 53.4552 123.046 53.5819C123.987 53.763 131.512 53.763 132.453 53.5819C133.013 53.4552 132.76 53.419 131.241 53.4008L129.287 53.3827V47.0449V40.689L131.295 40.7433L133.303 40.7976L134.569 43.0611C137.409 48.1857 139.634 51.3908 140.973 52.3144C142.547 53.4008 143.288 53.5638 146.255 53.5457L148.914 53.5276L147.558 53.2922C145.061 52.8757 143.813 51.9341 141.805 48.9644C140.141 46.5198 136.885 40.8881 136.885 40.4535C136.885 40.4173 137.337 40.2362 137.88 40.0552C140.919 39.1135 142.637 36.5422 142.456 33.2103C142.312 30.6571 141.335 29.0273 139.236 27.8684L138.241 27.3071H140.376C141.66 27.3071 142.493 27.2346 142.493 27.126C142.493 27.0173 141.986 26.9449 141.353 26.9449H140.195L136.595 16.8949C134.623 11.3719 132.941 6.8449 132.869 6.8449C132.796 6.8449 132.615 7.02598 132.489 7.24328ZM115.955 7.80463C116.913 8.25733 118.071 9.34382 118.451 10.1949C118.831 11.0279 118.903 12.7119 118.596 13.8165C118.343 14.7763 116.823 16.243 115.629 16.6957C114.924 16.9673 114.11 17.0579 111.794 17.1303L108.845 17.2027V12.2773V7.35193L112.065 7.42436C114.562 7.49679 115.412 7.56922 115.955 7.80463ZM132.851 18.76C130.662 18.7781 128.835 18.76 128.78 18.7238C128.708 18.6514 130.517 13.4725 132.416 8.31166L132.778 7.33382L134.804 13.0198L136.83 18.7057L132.851 18.76ZM138.386 22.9973C139.146 25.0979 139.761 26.8544 139.725 26.8725C139.598 26.9992 125.85 26.8 125.85 26.6552C125.85 26.5465 128.401 19.4663 128.491 19.3033C128.545 19.2308 130.481 19.1584 132.796 19.1584H137.011L138.386 22.9973ZM128.925 33.7354C128.925 40.2181 128.925 40.3449 128.563 40.3449C128.202 40.3449 128.202 40.2181 128.202 33.7354C128.202 27.2527 128.202 27.126 128.563 27.126C128.925 27.126 128.925 27.2527 128.925 33.7354ZM133.267 27.3071C136.74 27.8684 138.875 30.2225 138.875 33.5362C138.875 37.7192 136.27 40.0371 131.259 40.2906L129.287 40.3992V33.7535V27.126H130.698C131.458 27.126 132.615 27.2165 133.267 27.3071ZM111.324 27.5968C112.771 28.0676 114.706 29.4076 115.991 30.7838C117.348 32.2506 118.542 34.5141 119.084 36.6327C119.5 38.2806 119.5 41.8841 119.084 43.7311C118.071 48.2944 115.195 51.6987 111.324 52.93C109.677 53.4552 108.755 53.4914 107.38 53.093C103.346 51.8979 100.162 48.4392 98.9683 43.876C98.4798 42.0471 98.5341 38.2444 99.0587 36.2706C100.126 32.2325 102.659 29.1541 106.096 27.7417C107.38 27.2165 109.967 27.1441 111.324 27.5968ZM126.754 33.826C126.754 40.2181 126.754 40.3449 126.393 40.3449C126.031 40.3449 126.031 40.2181 126.031 33.826C126.031 27.4338 126.031 27.3071 126.393 27.3071C126.754 27.3071 126.754 27.4338 126.754 33.826ZM127.84 33.826C127.84 40.2181 127.84 40.3449 127.478 40.3449C127.116 40.3449 127.116 40.2181 127.116 33.826C127.116 27.4338 127.116 27.3071 127.478 27.3071C127.84 27.3071 127.84 27.4338 127.84 33.826ZM102.785 27.9771C100.542 29.136 98.6788 31.1098 97.5211 33.5544C95.9473 36.8681 95.6578 41.2503 96.7432 44.8176C97.7563 48.0952 99.6195 50.5035 102.46 52.2238C103.816 53.0387 103.527 53.0025 101.899 52.1695C99.927 51.1373 97.9191 49.0368 96.8337 46.8457C95.6216 44.3649 95.3865 43.2784 95.3865 40.2544C95.3865 38.19 95.4588 37.4476 95.7845 36.2162C96.7975 32.4498 98.9683 29.6611 102.044 28.1038C102.731 27.7779 103.382 27.4881 103.491 27.4881C103.599 27.5063 103.292 27.7235 102.785 27.9771ZM103.762 28.0495C101.555 29.2446 99.8547 31.0373 98.715 33.3733C96.6347 37.5925 96.6709 43.1154 98.8236 47.226C99.927 49.3446 101.465 50.9562 103.545 52.2238C104.902 53.0387 104.612 53.0025 102.984 52.1695C101.175 51.2279 99.0406 49.0549 98.0457 47.1173C96.7975 44.7271 96.4538 43.2241 96.4719 40.2544C96.4719 37.2303 96.8698 35.4557 98.0457 33.1922C99.0587 31.2184 101.175 29.0817 103.038 28.1581C104.648 27.3614 105.191 27.2708 103.762 28.0495ZM104.847 28.0495C102.641 29.2446 100.922 31.0554 99.8004 33.3733C97.702 37.7373 97.7924 43.2241 100.036 47.4976C100.795 48.9281 103.093 51.3184 104.522 52.1695C106.005 53.0387 105.752 53.0387 104.07 52.1695C102.08 51.1192 100.09 49.0368 99.0406 46.8638C97.7924 44.3106 97.5573 43.2603 97.5573 40.2544C97.5754 37.2665 97.9191 35.6911 99.0949 33.2827C100.108 31.2365 102.17 29.1179 104.124 28.1581C105.734 27.3614 106.277 27.2708 104.847 28.0495ZM113.078 27.8503C115.502 28.8825 117.836 31.1822 119.084 33.7354C120.224 36.0895 120.495 37.4114 120.477 40.3449C120.459 43.2241 120.115 44.7995 118.958 47.1898C117.818 49.5619 114.96 52.2238 113.006 52.7308C112.753 52.8033 113.006 52.6041 113.549 52.2781C114.851 51.4995 117.131 49.1998 117.836 47.9503C119.247 45.4152 119.79 42.8257 119.645 39.4033C119.536 36.8138 119.247 35.5825 118.216 33.4638C117.601 32.2144 117.131 31.6168 115.81 30.2949C114.797 29.2627 113.766 28.4298 113.096 28.0676C111.866 27.4157 111.848 27.3252 113.078 27.8503ZM114.797 28.1581C116.733 29.1179 118.994 31.3633 120.025 33.3914C121.255 35.7817 121.581 37.2846 121.563 40.2544C121.563 43.2603 121.201 44.8357 120.025 47.226C119.012 49.2903 116.968 51.3727 114.978 52.3506C113.241 53.2017 112.934 53.2198 114.417 52.3687C118.469 50.069 120.785 45.7049 120.803 40.3268C120.803 37.9727 120.568 36.5422 119.862 34.7314C118.704 31.7254 116.841 29.5525 114.073 28.0314C112.698 27.2708 113.169 27.3614 114.797 28.1581ZM115.882 28.14C117.782 29.0635 120.043 31.3271 121.11 33.3914C122.34 35.7998 122.684 37.2846 122.666 40.2544C122.648 43.2422 122.304 44.8176 121.128 47.226C120.115 49.3084 118.071 51.3546 116.027 52.3687C114.399 53.1654 113.983 53.1835 115.502 52.3868C116.769 51.7168 118.741 49.8879 119.627 48.5298C121.183 46.1938 121.888 43.5319 121.888 40.0733C121.888 34.7133 119.482 30.4217 115.159 28.0314C113.802 27.289 114.218 27.3614 115.882 28.14ZM137.681 27.959C138.983 28.5746 140.159 29.8603 140.665 31.1641C141.19 32.5946 141.19 34.6952 140.665 36.1257C140.213 37.3571 138.603 39.0773 137.608 39.4033C136.975 39.6025 136.975 39.6025 137.427 39.2946C138.513 38.5522 139.092 37.8822 139.634 36.7595C140.195 35.6368 140.231 35.4376 140.231 33.6449C140.231 31.979 140.177 31.6168 139.761 30.7476C139.128 29.4076 138.477 28.6652 137.355 28.0314C136.215 27.3614 136.36 27.3252 137.681 27.959ZM138.603 27.8684C139.598 28.303 140.937 29.48 141.371 30.2768C142.239 31.8884 142.402 34.3692 141.751 36.1076C141.299 37.3027 140.249 38.5341 139.11 39.2041C138.024 39.8379 137.988 39.6568 139.019 38.8781C141.281 37.2122 142.076 33.5 140.792 30.639C140.231 29.3895 139.544 28.6471 138.332 27.959C137.337 27.3976 137.445 27.3614 138.603 27.8684ZM136.595 27.9408C137.699 28.4117 139.128 29.969 139.58 31.1641C140.105 32.5946 140.105 34.6952 139.58 36.1257C139.146 37.3208 137.536 39.0592 136.559 39.4033C136.233 39.5119 135.98 39.5844 135.98 39.5481C135.98 39.5119 136.306 39.2765 136.704 39.0049C137.626 38.4073 138.585 36.9406 138.983 35.5462C139.309 34.4054 139.254 32.5765 138.875 31.2546C138.567 30.2044 137.59 28.9006 136.631 28.2487C135.655 27.5968 135.636 27.5425 136.595 27.9408ZM136.414 42.4273C137.717 44.8357 139.128 47.1898 140.738 49.5619C141.678 50.9381 142.312 51.6625 143.09 52.2238C143.686 52.6584 144.084 53.0206 144.012 53.0206C143.632 53.0206 141.968 51.8979 141.299 51.1735C139.616 49.4171 134.678 41.2141 134.985 40.7071C135.22 40.3268 135.437 40.5984 136.414 42.4273ZM136.993 41.4676C138.241 43.9665 141.208 48.8195 142.655 50.739C143.017 51.2098 143.741 51.9341 144.283 52.3144C144.826 52.6946 145.206 53.0206 145.134 53.0206C144.79 53.0206 143.451 52.1876 142.764 51.5538C141.516 50.3949 138.929 46.4654 136.776 42.4273C135.872 40.7071 135.799 40.526 136.143 40.526C136.414 40.526 136.65 40.7976 136.993 41.4676ZM126.754 47.0449C126.754 53.256 126.754 53.3827 126.393 53.3827C126.031 53.3827 126.031 53.256 126.031 47.0449C126.031 40.8338 126.031 40.7071 126.393 40.7071C126.754 40.7071 126.754 40.8338 126.754 47.0449ZM127.84 47.0449C127.84 53.256 127.84 53.3827 127.478 53.3827C127.116 53.3827 127.116 53.256 127.116 47.0449C127.116 40.8338 127.116 40.7071 127.478 40.7071C127.84 40.7071 127.84 40.8338 127.84 47.0449ZM128.925 47.0449C128.925 53.256 128.925 53.3827 128.563 53.3827C128.202 53.3827 128.202 53.256 128.202 47.0449C128.202 40.8338 128.202 40.7071 128.563 40.7071C128.925 40.7071 128.925 40.8338 128.925 47.0449ZM134.642 41.196C136.143 43.9846 137.753 46.6646 139.182 48.8195C140.575 50.9381 141.1 51.5538 141.986 52.2238C143.18 53.1111 143.216 53.2198 142.113 52.6403C140.177 51.6625 137.88 48.5479 134.66 42.5541C133.773 40.9425 133.701 40.7071 134.008 40.7071C134.207 40.7071 134.479 40.9244 134.642 41.196Z" fill="black"/>
<path d="M92.5889 60.499L92.6533 60.5127L92.4268 61.2314H90.376V61.1592H90.4756C90.5876 61.1592 90.6676 61.1227 90.7158 61.0498C90.7432 61.0081 90.7568 60.9118 90.7568 60.7607V59.0518C90.7568 58.8864 90.7386 58.7829 90.7021 58.7412C90.6514 58.6839 90.5758 58.6553 90.4756 58.6553H90.376V58.583H91.5752V58.6553C91.4346 58.654 91.3356 58.667 91.2783 58.6943C91.2223 58.7217 91.1839 58.7562 91.1631 58.7979C91.1423 58.8395 91.1318 58.9391 91.1318 59.0967V60.7607C91.1318 60.8688 91.1423 60.943 91.1631 60.9834C91.1787 61.0107 91.2028 61.0309 91.2354 61.0439C91.2679 61.057 91.3695 61.0635 91.54 61.0635H91.7334C91.9365 61.0635 92.0791 61.0485 92.1611 61.0186C92.2432 60.9886 92.318 60.9359 92.3857 60.8604C92.4535 60.7835 92.5212 60.6631 92.5889 60.499ZM93.167 60.1162C93.1657 60.3818 93.2301 60.5902 93.3604 60.7412C93.4906 60.8923 93.6436 60.9678 93.8193 60.9678C93.9365 60.9678 94.0381 60.9359 94.124 60.8721C94.2113 60.807 94.2842 60.6963 94.3428 60.54L94.4033 60.5791C94.376 60.7575 94.2965 60.9202 94.165 61.0674C94.0335 61.2132 93.8688 61.2861 93.6709 61.2861C93.4561 61.2861 93.2718 61.2028 93.1182 61.0361C92.9658 60.8682 92.8896 60.6429 92.8896 60.3604C92.8896 60.0544 92.9678 59.8161 93.124 59.6455C93.2816 59.4736 93.4788 59.3877 93.7158 59.3877C93.9163 59.3877 94.0811 59.4541 94.21 59.5869C94.3389 59.7184 94.4033 59.8949 94.4033 60.1162H93.167ZM93.167 60.0029H93.9951C93.9886 59.8883 93.9749 59.8076 93.9541 59.7607C93.9215 59.6878 93.8727 59.6305 93.8076 59.5889C93.7438 59.5472 93.6768 59.5264 93.6064 59.5264C93.4984 59.5264 93.4014 59.5687 93.3154 59.6533C93.2308 59.7367 93.1813 59.8532 93.167 60.0029ZM95.1631 58.8545V59.4424H95.5811V59.5791H95.1631V60.7393C95.1631 60.8551 95.1794 60.9333 95.2119 60.9736C95.2458 61.014 95.2887 61.0342 95.3408 61.0342C95.3838 61.0342 95.4255 61.0212 95.4658 60.9951C95.5062 60.9678 95.5374 60.9281 95.5596 60.876H95.6357C95.5902 61.0036 95.5257 61.0999 95.4424 61.165C95.359 61.2288 95.2731 61.2607 95.1846 61.2607C95.1247 61.2607 95.0661 61.2445 95.0088 61.2119C94.9515 61.1781 94.9092 61.1305 94.8818 61.0693C94.8545 61.0068 94.8408 60.9111 94.8408 60.7822V59.5791H94.5576V59.5146C94.6292 59.486 94.7021 59.4378 94.7764 59.3701C94.8519 59.3011 94.9189 59.2197 94.9775 59.126C95.0075 59.0765 95.0492 58.986 95.1025 58.8545H95.1631ZM97.3721 58.4541V60.8271C97.3721 60.9391 97.3799 61.0133 97.3955 61.0498C97.4124 61.0863 97.4378 61.1143 97.4717 61.1338C97.5055 61.152 97.5687 61.1611 97.6611 61.1611V61.2314H96.7842V61.1611C96.8662 61.1611 96.9222 61.1527 96.9521 61.1357C96.9821 61.1188 97.0055 61.0908 97.0225 61.0518C97.0394 61.0127 97.0479 60.9378 97.0479 60.8271V59.2021C97.0479 59.0003 97.0433 58.8766 97.0342 58.8311C97.0251 58.7842 97.0101 58.7523 96.9893 58.7354C96.9697 58.7184 96.9443 58.71 96.9131 58.71C96.8792 58.71 96.8363 58.7204 96.7842 58.7412L96.751 58.6729L97.2842 58.4541H97.3721ZM98.3252 58.4541C98.3799 58.4541 98.4261 58.4736 98.4639 58.5127C98.5029 58.5505 98.5225 58.5967 98.5225 58.6514C98.5225 58.7061 98.5029 58.7529 98.4639 58.792C98.4261 58.8311 98.3799 58.8506 98.3252 58.8506C98.2705 58.8506 98.2236 58.8311 98.1846 58.792C98.1455 58.7529 98.126 58.7061 98.126 58.6514C98.126 58.5967 98.1449 58.5505 98.1826 58.5127C98.2217 58.4736 98.2692 58.4541 98.3252 58.4541ZM98.4873 59.3896V60.8271C98.4873 60.9391 98.4951 61.014 98.5107 61.0518C98.5277 61.0882 98.5518 61.1156 98.583 61.1338C98.6156 61.152 98.6742 61.1611 98.7588 61.1611V61.2314H97.8896V61.1611C97.9769 61.1611 98.0355 61.1527 98.0654 61.1357C98.0954 61.1188 98.1188 61.0908 98.1357 61.0518C98.154 61.0127 98.1631 60.9378 98.1631 60.8271V60.1377C98.1631 59.9437 98.1572 59.818 98.1455 59.7607C98.1364 59.7191 98.1221 59.6904 98.1025 59.6748C98.083 59.6579 98.0563 59.6494 98.0225 59.6494C97.986 59.6494 97.9417 59.6592 97.8896 59.6787L97.8623 59.6084L98.4014 59.3896H98.4873ZM99.5029 58.8545V59.4424H99.9209V59.5791H99.5029V60.7393C99.5029 60.8551 99.5192 60.9333 99.5518 60.9736C99.5856 61.014 99.6286 61.0342 99.6807 61.0342C99.7236 61.0342 99.7653 61.0212 99.8057 60.9951C99.846 60.9678 99.8773 60.9281 99.8994 60.876H99.9756C99.93 61.0036 99.8656 61.0999 99.7822 61.165C99.6989 61.2288 99.613 61.2607 99.5244 61.2607C99.4645 61.2607 99.4059 61.2445 99.3486 61.2119C99.2913 61.1781 99.249 61.1305 99.2217 61.0693C99.1943 61.0068 99.1807 60.9111 99.1807 60.7822V59.5791H98.8975V59.5146C98.9691 59.486 99.042 59.4378 99.1162 59.3701C99.1917 59.3011 99.2588 59.2197 99.3174 59.126C99.3473 59.0765 99.389 58.986 99.4424 58.8545H99.5029ZM100.616 58.8545V59.4424H101.034V59.5791H100.616V60.7393C100.616 60.8551 100.632 60.9333 100.665 60.9736C100.699 61.014 100.742 61.0342 100.794 61.0342C100.837 61.0342 100.879 61.0212 100.919 60.9951C100.959 60.9678 100.991 60.9281 101.013 60.876H101.089C101.043 61.0036 100.979 61.0999 100.896 61.165C100.812 61.2288 100.726 61.2607 100.638 61.2607C100.578 61.2607 100.519 61.2445 100.462 61.2119C100.405 61.1781 100.362 61.1305 100.335 61.0693C100.308 61.0068 100.294 60.9111 100.294 60.7822V59.5791H100.011V59.5146C100.082 59.486 100.155 59.4378 100.229 59.3701C100.305 59.3011 100.372 59.2197 100.431 59.126C100.461 59.0765 100.502 58.986 100.556 58.8545H100.616ZM101.825 58.4541V60.8271C101.825 60.9391 101.833 61.0133 101.849 61.0498C101.866 61.0863 101.891 61.1143 101.925 61.1338C101.959 61.152 102.022 61.1611 102.114 61.1611V61.2314H101.237V61.1611C101.319 61.1611 101.375 61.1527 101.405 61.1357C101.435 61.1188 101.459 61.0908 101.476 61.0518C101.493 61.0127 101.501 60.9378 101.501 60.8271V59.2021C101.501 59.0003 101.496 58.8766 101.487 58.8311C101.478 58.7842 101.463 58.7523 101.442 58.7354C101.423 58.7184 101.397 58.71 101.366 58.71C101.332 58.71 101.289 58.7204 101.237 58.7412L101.204 58.6729L101.737 58.4541H101.825ZM102.624 60.1162C102.623 60.3818 102.687 60.5902 102.817 60.7412C102.948 60.8923 103.101 60.9678 103.276 60.9678C103.394 60.9678 103.495 60.9359 103.581 60.8721C103.668 60.807 103.741 60.6963 103.8 60.54L103.86 60.5791C103.833 60.7575 103.754 60.9202 103.622 61.0674C103.491 61.2132 103.326 61.2861 103.128 61.2861C102.913 61.2861 102.729 61.2028 102.575 61.0361C102.423 60.8682 102.347 60.6429 102.347 60.3604C102.347 60.0544 102.425 59.8161 102.581 59.6455C102.739 59.4736 102.936 59.3877 103.173 59.3877C103.373 59.3877 103.538 59.4541 103.667 59.5869C103.796 59.7184 103.86 59.8949 103.86 60.1162H102.624ZM102.624 60.0029H103.452C103.446 59.8883 103.432 59.8076 103.411 59.7607C103.379 59.6878 103.33 59.6305 103.265 59.5889C103.201 59.5472 103.134 59.5264 103.063 59.5264C102.955 59.5264 102.858 59.5687 102.772 59.6533C102.688 59.7367 102.638 59.8532 102.624 60.0029ZM105.626 58.4541V59.7627C105.771 59.6038 105.885 59.5023 105.97 59.458C106.054 59.4124 106.139 59.3896 106.224 59.3896C106.325 59.3896 106.412 59.4176 106.485 59.4736C106.558 59.5296 106.612 59.6175 106.647 59.7373C106.672 59.8206 106.685 59.973 106.685 60.1943V60.8271C106.685 60.9404 106.694 61.0179 106.712 61.0596C106.725 61.0908 106.747 61.1156 106.778 61.1338C106.81 61.152 106.867 61.1611 106.95 61.1611V61.2314H106.071V61.1611H106.112C106.196 61.1611 106.254 61.1488 106.286 61.124C106.319 61.098 106.341 61.0602 106.354 61.0107C106.358 60.9899 106.36 60.9287 106.36 60.8271V60.1943C106.36 59.999 106.35 59.8708 106.329 59.8096C106.31 59.7484 106.278 59.7028 106.233 59.6729C106.189 59.6416 106.136 59.626 106.073 59.626C106.009 59.626 105.943 59.6429 105.874 59.6768C105.805 59.7106 105.722 59.779 105.626 59.8818V60.8271C105.626 60.9495 105.632 61.0257 105.646 61.0557C105.66 61.0856 105.685 61.111 105.722 61.1318C105.759 61.1514 105.824 61.1611 105.915 61.1611V61.2314H105.028V61.1611C105.108 61.1611 105.17 61.1488 105.216 61.124C105.242 61.111 105.263 61.0863 105.278 61.0498C105.294 61.0133 105.302 60.9391 105.302 60.8271V59.208C105.302 59.0036 105.297 58.8779 105.286 58.8311C105.277 58.7842 105.262 58.7523 105.241 58.7354C105.222 58.7184 105.195 58.71 105.161 58.71C105.134 58.71 105.09 58.7204 105.028 58.7412L105.001 58.6729L105.536 58.4541H105.626ZM108.114 60.9736C107.931 61.1156 107.815 61.1976 107.769 61.2197C107.698 61.2523 107.623 61.2686 107.544 61.2686C107.42 61.2686 107.318 61.2262 107.237 61.1416C107.158 61.057 107.118 60.9456 107.118 60.8076C107.118 60.7204 107.138 60.6449 107.177 60.5811C107.23 60.4925 107.323 60.4092 107.454 60.3311C107.587 60.2529 107.807 60.1579 108.114 60.0459V59.9756C108.114 59.7972 108.086 59.6748 108.028 59.6084C107.972 59.542 107.89 59.5088 107.782 59.5088C107.7 59.5088 107.635 59.5309 107.587 59.5752C107.537 59.6195 107.513 59.6702 107.513 59.7275L107.517 59.8408C107.517 59.9007 107.501 59.9469 107.47 59.9795C107.44 60.012 107.4 60.0283 107.351 60.0283C107.302 60.0283 107.263 60.0114 107.231 59.9775C107.201 59.9437 107.187 59.8975 107.187 59.8389C107.187 59.7269 107.244 59.624 107.358 59.5303C107.473 59.4365 107.634 59.3896 107.841 59.3896C108 59.3896 108.13 59.4163 108.231 59.4697C108.308 59.5101 108.365 59.5732 108.401 59.6592C108.425 59.7152 108.437 59.8298 108.437 60.0029V60.6104C108.437 60.7809 108.44 60.8857 108.446 60.9248C108.453 60.9626 108.463 60.988 108.478 61.001C108.493 61.014 108.511 61.0205 108.53 61.0205C108.551 61.0205 108.569 61.016 108.585 61.0068C108.612 60.9899 108.665 60.9424 108.743 60.8643V60.9736C108.597 61.1689 108.458 61.2666 108.325 61.2666C108.261 61.2666 108.211 61.2445 108.173 61.2002C108.135 61.1559 108.116 61.0804 108.114 60.9736ZM108.114 60.8467V60.165C107.918 60.2432 107.791 60.2985 107.733 60.3311C107.631 60.3883 107.557 60.4482 107.513 60.5107C107.468 60.5732 107.446 60.6416 107.446 60.7158C107.446 60.8096 107.474 60.8877 107.53 60.9502C107.586 61.0114 107.651 61.042 107.724 61.042C107.823 61.042 107.953 60.9769 108.114 60.8467ZM109.399 59.7686C109.609 59.516 109.809 59.3896 109.999 59.3896C110.097 59.3896 110.181 59.4144 110.251 59.4639C110.321 59.512 110.377 59.5921 110.419 59.7041C110.448 59.7822 110.462 59.902 110.462 60.0635V60.8271C110.462 60.9404 110.471 61.0173 110.489 61.0576C110.504 61.0902 110.526 61.1156 110.558 61.1338C110.59 61.152 110.649 61.1611 110.735 61.1611V61.2314H109.851V61.1611H109.888C109.971 61.1611 110.029 61.1488 110.062 61.124C110.095 61.098 110.119 61.0602 110.132 61.0107C110.137 60.9912 110.14 60.93 110.14 60.8271V60.0947C110.14 59.932 110.118 59.8141 110.075 59.7412C110.034 59.667 109.963 59.6299 109.862 59.6299C109.707 59.6299 109.553 59.7145 109.399 59.8838V60.8271C109.399 60.9482 109.407 61.0231 109.421 61.0518C109.439 61.0895 109.464 61.1175 109.495 61.1357C109.528 61.1527 109.593 61.1611 109.69 61.1611V61.2314H108.806V61.1611H108.845C108.936 61.1611 108.997 61.1383 109.028 61.0928C109.061 61.0459 109.077 60.9574 109.077 60.8271V60.1631C109.077 59.9482 109.072 59.8174 109.062 59.7705C109.052 59.7236 109.037 59.6917 109.017 59.6748C108.997 59.6579 108.97 59.6494 108.937 59.6494C108.9 59.6494 108.856 59.6592 108.806 59.6787L108.776 59.6084L109.315 59.3896H109.399V59.7686ZM112.142 61.0303C112.054 61.1214 111.969 61.1872 111.886 61.2275C111.802 61.2666 111.713 61.2861 111.616 61.2861C111.421 61.2861 111.25 61.2048 111.104 61.042C110.959 60.8779 110.886 60.6676 110.886 60.4111C110.886 60.1546 110.966 59.9202 111.128 59.708C111.289 59.4945 111.497 59.3877 111.751 59.3877C111.909 59.3877 112.039 59.4378 112.142 59.5381V59.208C112.142 59.0036 112.136 58.8779 112.126 58.8311C112.117 58.7842 112.102 58.7523 112.081 58.7354C112.06 58.7184 112.034 58.71 112.003 58.71C111.969 58.71 111.924 58.7204 111.868 58.7412L111.843 58.6729L112.376 58.4541H112.464V60.5225C112.464 60.7321 112.468 60.8604 112.478 60.9072C112.488 60.9528 112.504 60.9847 112.524 61.0029C112.547 61.0212 112.572 61.0303 112.601 61.0303C112.636 61.0303 112.683 61.0192 112.741 60.9971L112.763 61.0654L112.231 61.2861H112.142V61.0303ZM112.142 60.8936V59.9717C112.134 59.8831 112.11 59.8024 112.071 59.7295C112.032 59.6566 111.98 59.6019 111.915 59.5654C111.851 59.5277 111.789 59.5088 111.728 59.5088C111.613 59.5088 111.511 59.5602 111.421 59.6631C111.302 59.7985 111.243 59.9964 111.243 60.2568C111.243 60.5199 111.3 60.7217 111.415 60.8623C111.53 61.0016 111.657 61.0713 111.798 61.0713C111.916 61.0713 112.031 61.012 112.142 60.8936ZM114.034 59.3896V59.999H113.97C113.92 59.8076 113.856 59.6774 113.778 59.6084C113.701 59.5394 113.603 59.5049 113.483 59.5049C113.392 59.5049 113.319 59.529 113.263 59.5771C113.207 59.6253 113.179 59.6787 113.179 59.7373C113.179 59.8102 113.2 59.8727 113.241 59.9248C113.282 59.9782 113.364 60.0348 113.487 60.0947L113.772 60.2334C114.037 60.3623 114.169 60.5322 114.169 60.7432C114.169 60.9059 114.107 61.0374 113.983 61.1377C113.861 61.2367 113.724 61.2861 113.571 61.2861C113.462 61.2861 113.337 61.2666 113.196 61.2275C113.153 61.2145 113.118 61.208 113.091 61.208C113.061 61.208 113.037 61.2249 113.021 61.2588H112.956V60.6201H113.021C113.057 60.8024 113.127 60.9398 113.229 61.0322C113.332 61.1247 113.448 61.1709 113.575 61.1709C113.665 61.1709 113.738 61.1449 113.794 61.0928C113.851 61.0394 113.88 60.9756 113.88 60.9014C113.88 60.8115 113.848 60.736 113.784 60.6748C113.722 60.6136 113.596 60.5361 113.407 60.4424C113.218 60.3486 113.095 60.264 113.036 60.1885C112.978 60.1143 112.948 60.0205 112.948 59.9072C112.948 59.7601 112.998 59.637 113.099 59.5381C113.2 59.4391 113.331 59.3896 113.491 59.3896C113.562 59.3896 113.647 59.4046 113.747 59.4346C113.813 59.4541 113.858 59.4639 113.88 59.4639C113.901 59.4639 113.917 59.4593 113.929 59.4502C113.94 59.4411 113.954 59.4209 113.97 59.3896H114.034ZM115.968 59.7705C116.098 59.6403 116.175 59.5654 116.198 59.5459C116.257 59.4964 116.32 59.458 116.388 59.4307C116.455 59.4033 116.522 59.3896 116.589 59.3896C116.701 59.3896 116.797 59.4222 116.878 59.4873C116.959 59.5524 117.013 59.6468 117.04 59.7705C117.174 59.6143 117.287 59.512 117.38 59.4639C117.472 59.4144 117.567 59.3896 117.665 59.3896C117.76 59.3896 117.844 59.4144 117.917 59.4639C117.991 59.512 118.05 59.5915 118.093 59.7021C118.121 59.7777 118.136 59.8962 118.136 60.0576V60.8271C118.136 60.9391 118.144 61.016 118.161 61.0576C118.174 61.0863 118.198 61.111 118.233 61.1318C118.269 61.1514 118.326 61.1611 118.405 61.1611V61.2314H117.522V61.1611H117.56C117.636 61.1611 117.696 61.1462 117.739 61.1162C117.769 61.0954 117.791 61.0622 117.804 61.0166C117.809 60.9945 117.812 60.9313 117.812 60.8271V60.0576C117.812 59.9118 117.794 59.8089 117.759 59.749C117.708 59.6657 117.627 59.624 117.515 59.624C117.446 59.624 117.376 59.6416 117.306 59.6768C117.237 59.7106 117.153 59.7744 117.054 59.8682L117.05 59.8896L117.054 59.9736V60.8271C117.054 60.9495 117.06 61.0257 117.073 61.0557C117.088 61.0856 117.114 61.111 117.151 61.1318C117.189 61.1514 117.254 61.1611 117.345 61.1611V61.2314H116.44V61.1611C116.539 61.1611 116.607 61.1494 116.644 61.126C116.681 61.1025 116.707 61.0674 116.722 61.0205C116.728 60.9984 116.731 60.9339 116.731 60.8271V60.0576C116.731 59.9118 116.71 59.807 116.667 59.7432C116.61 59.6598 116.53 59.6182 116.427 59.6182C116.356 59.6182 116.287 59.637 116.218 59.6748C116.11 59.7321 116.026 59.7965 115.968 59.8682V60.8271C115.968 60.9443 115.976 61.0205 115.991 61.0557C116.008 61.0908 116.032 61.1175 116.063 61.1357C116.096 61.1527 116.161 61.1611 116.259 61.1611V61.2314H115.374V61.1611C115.456 61.1611 115.513 61.1527 115.546 61.1357C115.578 61.1175 115.603 61.0895 115.62 61.0518C115.637 61.0127 115.646 60.9378 115.646 60.8271V60.1436C115.646 59.9469 115.64 59.82 115.628 59.7627C115.619 59.7197 115.604 59.6904 115.585 59.6748C115.565 59.6579 115.539 59.6494 115.505 59.6494C115.468 59.6494 115.425 59.6592 115.374 59.6787L115.345 59.6084L115.884 59.3896H115.968V59.7705ZM119.563 60.9736C119.38 61.1156 119.265 61.1976 119.218 61.2197C119.147 61.2523 119.073 61.2686 118.993 61.2686C118.869 61.2686 118.767 61.2262 118.687 61.1416C118.607 61.057 118.567 60.9456 118.567 60.8076C118.567 60.7204 118.587 60.6449 118.626 60.5811C118.679 60.4925 118.772 60.4092 118.903 60.3311C119.036 60.2529 119.256 60.1579 119.563 60.0459V59.9756C119.563 59.7972 119.535 59.6748 119.478 59.6084C119.422 59.542 119.34 59.5088 119.231 59.5088C119.149 59.5088 119.084 59.5309 119.036 59.5752C118.987 59.6195 118.962 59.6702 118.962 59.7275L118.966 59.8408C118.966 59.9007 118.95 59.9469 118.919 59.9795C118.889 60.012 118.849 60.0283 118.8 60.0283C118.752 60.0283 118.712 60.0114 118.681 59.9775C118.651 59.9437 118.636 59.8975 118.636 59.8389C118.636 59.7269 118.693 59.624 118.808 59.5303C118.922 59.4365 119.083 59.3896 119.29 59.3896C119.449 59.3896 119.579 59.4163 119.681 59.4697C119.757 59.5101 119.814 59.5732 119.851 59.6592C119.874 59.7152 119.886 59.8298 119.886 60.0029V60.6104C119.886 60.7809 119.889 60.8857 119.896 60.9248C119.902 60.9626 119.912 60.988 119.927 61.001C119.942 61.014 119.96 61.0205 119.979 61.0205C120 61.0205 120.019 61.016 120.034 61.0068C120.062 60.9899 120.114 60.9424 120.192 60.8643V60.9736C120.047 61.1689 119.907 61.2666 119.774 61.2666C119.711 61.2666 119.66 61.2445 119.622 61.2002C119.584 61.1559 119.565 61.0804 119.563 60.9736ZM119.563 60.8467V60.165C119.367 60.2432 119.24 60.2985 119.183 60.3311C119.08 60.3883 119.006 60.4482 118.962 60.5107C118.918 60.5732 118.896 60.6416 118.896 60.7158C118.896 60.8096 118.924 60.8877 118.979 60.9502C119.035 61.0114 119.1 61.042 119.173 61.042C119.272 61.042 119.402 60.9769 119.563 60.8467ZM120.856 58.4541V60.2354L121.312 59.8193C121.408 59.7308 121.464 59.6748 121.479 59.6514C121.49 59.6357 121.495 59.6201 121.495 59.6045C121.495 59.5785 121.484 59.5563 121.462 59.5381C121.441 59.5186 121.406 59.5075 121.356 59.5049V59.4424H122.134V59.5049C122.027 59.5075 121.938 59.5238 121.866 59.5537C121.796 59.5837 121.718 59.637 121.634 59.7139L121.175 60.1377L121.634 60.7178C121.761 60.8779 121.847 60.9795 121.892 61.0225C121.954 61.0837 122.009 61.1234 122.056 61.1416C122.088 61.1546 122.145 61.1611 122.226 61.1611V61.2314H121.356V61.1611C121.406 61.1598 121.439 61.1527 121.456 61.1396C121.474 61.1253 121.483 61.1058 121.483 61.0811C121.483 61.0511 121.457 61.0029 121.405 60.9365L120.856 60.2354V60.8291C120.856 60.945 120.864 61.0212 120.88 61.0576C120.897 61.0941 120.92 61.1201 120.95 61.1357C120.98 61.1514 121.045 61.1598 121.146 61.1611V61.2314H120.235V61.1611C120.326 61.1611 120.395 61.1501 120.44 61.1279C120.468 61.1136 120.489 61.0915 120.503 61.0615C120.522 61.0186 120.532 60.9443 120.532 60.8389V59.21C120.532 59.0029 120.528 58.8766 120.519 58.8311C120.509 58.7842 120.494 58.7523 120.474 58.7354C120.453 58.7171 120.425 58.708 120.392 58.708C120.364 58.708 120.323 58.7191 120.269 58.7412L120.235 58.6729L120.767 58.4541H120.856ZM122.628 60.1162C122.627 60.3818 122.691 60.5902 122.821 60.7412C122.951 60.8923 123.104 60.9678 123.28 60.9678C123.397 60.9678 123.499 60.9359 123.585 60.8721C123.672 60.807 123.745 60.6963 123.804 60.54L123.864 60.5791C123.837 60.7575 123.757 60.9202 123.626 61.0674C123.494 61.2132 123.33 61.2861 123.132 61.2861C122.917 61.2861 122.733 61.2028 122.579 61.0361C122.427 60.8682 122.351 60.6429 122.351 60.3604C122.351 60.0544 122.429 59.8161 122.585 59.6455C122.743 59.4736 122.94 59.3877 123.177 59.3877C123.377 59.3877 123.542 59.4541 123.671 59.5869C123.8 59.7184 123.864 59.8949 123.864 60.1162H122.628ZM122.628 60.0029H123.456C123.45 59.8883 123.436 59.8076 123.415 59.7607C123.382 59.6878 123.334 59.6305 123.269 59.5889C123.205 59.5472 123.138 59.5264 123.067 59.5264C122.959 59.5264 122.862 59.5687 122.776 59.6533C122.692 59.7367 122.642 59.8532 122.628 60.0029ZM125.595 59.751C125.768 59.5101 125.955 59.3896 126.155 59.3896C126.339 59.3896 126.499 59.4684 126.636 59.626C126.772 59.7822 126.841 59.9964 126.841 60.2686C126.841 60.5863 126.735 60.8421 126.524 61.0361C126.343 61.2028 126.142 61.2861 125.919 61.2861C125.815 61.2861 125.709 61.2673 125.601 61.2295C125.494 61.1917 125.384 61.1351 125.272 61.0596V59.2061C125.272 59.0029 125.267 58.8779 125.257 58.8311C125.248 58.7842 125.233 58.7523 125.212 58.7354C125.191 58.7184 125.165 58.71 125.134 58.71C125.097 58.71 125.052 58.7204 124.997 58.7412L124.97 58.6729L125.507 58.4541H125.595V59.751ZM125.595 59.876V60.9463C125.661 61.0114 125.729 61.0609 125.8 61.0947C125.871 61.1273 125.944 61.1436 126.019 61.1436C126.137 61.1436 126.247 61.0785 126.349 60.9482C126.451 60.818 126.503 60.6286 126.503 60.3799C126.503 60.1507 126.451 59.9749 126.349 59.8525C126.247 59.7288 126.131 59.667 126.001 59.667C125.932 59.667 125.863 59.6846 125.794 59.7197C125.742 59.7458 125.675 59.7979 125.595 59.876ZM127.56 58.4541C127.614 58.4541 127.66 58.4736 127.698 58.5127C127.737 58.5505 127.757 58.5967 127.757 58.6514C127.757 58.7061 127.737 58.7529 127.698 58.792C127.66 58.8311 127.614 58.8506 127.56 58.8506C127.505 58.8506 127.458 58.8311 127.419 58.792C127.38 58.7529 127.36 58.7061 127.36 58.6514C127.36 58.5967 127.379 58.5505 127.417 58.5127C127.456 58.4736 127.504 58.4541 127.56 58.4541ZM127.722 59.3896V60.8271C127.722 60.9391 127.729 61.014 127.745 61.0518C127.762 61.0882 127.786 61.1156 127.817 61.1338C127.85 61.152 127.909 61.1611 127.993 61.1611V61.2314H127.124V61.1611C127.211 61.1611 127.27 61.1527 127.3 61.1357C127.33 61.1188 127.353 61.0908 127.37 61.0518C127.388 61.0127 127.397 60.9378 127.397 60.8271V60.1377C127.397 59.9437 127.392 59.818 127.38 59.7607C127.371 59.7191 127.356 59.6904 127.337 59.6748C127.317 59.6579 127.291 59.6494 127.257 59.6494C127.22 59.6494 127.176 59.6592 127.124 59.6787L127.097 59.6084L127.636 59.3896H127.722ZM128.696 60.5791C128.587 60.5257 128.503 60.4515 128.444 60.3564C128.386 60.2601 128.356 60.154 128.356 60.0381C128.356 59.861 128.423 59.7087 128.556 59.5811C128.69 59.4535 128.861 59.3896 129.069 59.3896C129.24 59.3896 129.388 59.4313 129.513 59.5146H129.892C129.948 59.5146 129.98 59.5166 129.989 59.5205C129.998 59.5231 130.005 59.5283 130.009 59.5361C130.017 59.5479 130.021 59.5687 130.021 59.5986C130.021 59.6325 130.017 59.6559 130.011 59.6689C130.007 59.6755 130 59.6807 129.989 59.6846C129.98 59.6885 129.948 59.6904 129.892 59.6904H129.659C129.732 59.7842 129.769 59.904 129.769 60.0498C129.769 60.2165 129.705 60.359 129.577 60.4775C129.45 60.596 129.278 60.6553 129.063 60.6553C128.975 60.6553 128.884 60.6423 128.792 60.6162C128.735 60.6657 128.696 60.7093 128.675 60.7471C128.655 60.7835 128.646 60.8148 128.646 60.8408C128.646 60.863 128.656 60.8844 128.677 60.9053C128.699 60.9261 128.741 60.9411 128.804 60.9502C128.84 60.9554 128.931 60.96 129.077 60.9639C129.345 60.9704 129.519 60.9795 129.599 60.9912C129.72 61.0081 129.816 61.0531 129.888 61.126C129.961 61.1989 129.997 61.2887 129.997 61.3955C129.997 61.5426 129.928 61.6807 129.79 61.8096C129.587 61.9997 129.322 62.0947 128.995 62.0947C128.744 62.0947 128.532 62.0381 128.358 61.9248C128.261 61.8597 128.212 61.792 128.212 61.7217C128.212 61.6904 128.219 61.6592 128.233 61.6279C128.256 61.5798 128.301 61.5127 128.37 61.4268C128.379 61.415 128.446 61.3447 128.569 61.2158C128.502 61.1755 128.453 61.1396 128.425 61.1084C128.397 61.0758 128.384 61.0394 128.384 60.999C128.384 60.9535 128.402 60.9001 128.438 60.8389C128.476 60.7777 128.562 60.6911 128.696 60.5791ZM129.036 59.4834C128.94 59.4834 128.859 59.5218 128.794 59.5986C128.729 59.6755 128.696 59.7933 128.696 59.9521C128.696 60.1579 128.741 60.3174 128.829 60.4307C128.897 60.5166 128.983 60.5596 129.087 60.5596C129.186 60.5596 129.267 60.5225 129.331 60.4482C129.395 60.374 129.427 60.2575 129.427 60.0986C129.427 59.8916 129.382 59.7295 129.292 59.6123C129.226 59.5264 129.14 59.4834 129.036 59.4834ZM128.677 61.2314C128.616 61.2979 128.569 61.3597 128.538 61.417C128.507 61.4743 128.491 61.527 128.491 61.5752C128.491 61.6377 128.529 61.6924 128.604 61.7393C128.735 61.82 128.923 61.8604 129.169 61.8604C129.403 61.8604 129.576 61.8187 129.687 61.7354C129.799 61.6533 129.854 61.5654 129.854 61.4717C129.854 61.404 129.821 61.3558 129.755 61.3271C129.687 61.2985 129.553 61.2816 129.353 61.2764C129.06 61.2686 128.834 61.2536 128.677 61.2314ZM131.749 59.7705C131.879 59.6403 131.956 59.5654 131.979 59.5459C132.038 59.4964 132.101 59.458 132.169 59.4307C132.237 59.4033 132.304 59.3896 132.37 59.3896C132.482 59.3896 132.578 59.4222 132.659 59.4873C132.74 59.5524 132.794 59.6468 132.821 59.7705C132.955 59.6143 133.069 59.512 133.161 59.4639C133.254 59.4144 133.349 59.3896 133.446 59.3896C133.541 59.3896 133.625 59.4144 133.698 59.4639C133.772 59.512 133.831 59.5915 133.874 59.7021C133.903 59.7777 133.917 59.8962 133.917 60.0576V60.8271C133.917 60.9391 133.925 61.016 133.942 61.0576C133.955 61.0863 133.979 61.111 134.015 61.1318C134.05 61.1514 134.107 61.1611 134.187 61.1611V61.2314H133.304V61.1611H133.341C133.418 61.1611 133.478 61.1462 133.521 61.1162C133.55 61.0954 133.572 61.0622 133.585 61.0166C133.59 60.9945 133.593 60.9313 133.593 60.8271V60.0576C133.593 59.9118 133.575 59.8089 133.54 59.749C133.489 59.6657 133.408 59.624 133.296 59.624C133.227 59.624 133.157 59.6416 133.087 59.6768C133.018 59.7106 132.934 59.7744 132.835 59.8682L132.831 59.8896L132.835 59.9736V60.8271C132.835 60.9495 132.841 61.0257 132.854 61.0557C132.869 61.0856 132.895 61.111 132.933 61.1318C132.97 61.1514 133.035 61.1611 133.126 61.1611V61.2314H132.222V61.1611C132.321 61.1611 132.388 61.1494 132.425 61.126C132.463 61.1025 132.489 61.0674 132.503 61.0205C132.509 60.9984 132.513 60.9339 132.513 60.8271V60.0576C132.513 59.9118 132.491 59.807 132.448 59.7432C132.391 59.6598 132.311 59.6182 132.208 59.6182C132.138 59.6182 132.068 59.637 131.999 59.6748C131.891 59.7321 131.808 59.7965 131.749 59.8682V60.8271C131.749 60.9443 131.757 61.0205 131.772 61.0557C131.789 61.0908 131.813 61.1175 131.845 61.1357C131.877 61.1527 131.942 61.1611 132.04 61.1611V61.2314H131.155V61.1611C131.237 61.1611 131.295 61.1527 131.327 61.1357C131.36 61.1175 131.384 61.0895 131.401 61.0518C131.418 61.0127 131.427 60.9378 131.427 60.8271V60.1436C131.427 59.9469 131.421 59.82 131.409 59.7627C131.4 59.7197 131.386 59.6904 131.366 59.6748C131.347 59.6579 131.32 59.6494 131.286 59.6494C131.25 59.6494 131.206 59.6592 131.155 59.6787L131.126 59.6084L131.665 59.3896H131.749V59.7705ZM135.899 59.4424V60.5264C135.899 60.7334 135.904 60.8604 135.913 60.9072C135.924 60.9528 135.939 60.9847 135.96 61.0029C135.982 61.0212 136.007 61.0303 136.036 61.0303C136.076 61.0303 136.122 61.0192 136.173 60.9971L136.2 61.0654L135.665 61.2861H135.577V60.9072C135.424 61.0739 135.306 61.1787 135.226 61.2217C135.145 61.2646 135.06 61.2861 134.97 61.2861C134.869 61.2861 134.782 61.2575 134.708 61.2002C134.635 61.1416 134.584 61.0667 134.556 60.9756C134.527 60.8844 134.513 60.7555 134.513 60.5889V59.79C134.513 59.7054 134.504 59.6468 134.485 59.6143C134.467 59.5817 134.44 59.557 134.403 59.54C134.368 59.5218 134.304 59.5133 134.21 59.5146V59.4424H134.837V60.6396C134.837 60.8063 134.866 60.9157 134.923 60.9678C134.981 61.0199 135.052 61.0459 135.134 61.0459C135.19 61.0459 135.253 61.0283 135.323 60.9932C135.395 60.958 135.479 60.891 135.577 60.792V59.7783C135.577 59.6768 135.558 59.6084 135.521 59.5732C135.484 59.5368 135.407 59.5173 135.29 59.5146V59.4424H135.899ZM137.487 59.3896V59.999H137.423C137.373 59.8076 137.31 59.6774 137.231 59.6084C137.155 59.5394 137.056 59.5049 136.937 59.5049C136.845 59.5049 136.772 59.529 136.716 59.5771C136.66 59.6253 136.632 59.6787 136.632 59.7373C136.632 59.8102 136.653 59.8727 136.694 59.9248C136.735 59.9782 136.817 60.0348 136.94 60.0947L137.226 60.2334C137.49 60.3623 137.622 60.5322 137.622 60.7432C137.622 60.9059 137.56 61.0374 137.437 61.1377C137.314 61.2367 137.177 61.2861 137.024 61.2861C136.915 61.2861 136.79 61.2666 136.649 61.2275C136.606 61.2145 136.571 61.208 136.544 61.208C136.514 61.208 136.491 61.2249 136.474 61.2588H136.409V60.6201H136.474C136.51 60.8024 136.58 60.9398 136.683 61.0322C136.785 61.1247 136.901 61.1709 137.028 61.1709C137.118 61.1709 137.191 61.1449 137.247 61.0928C137.304 61.0394 137.333 60.9756 137.333 60.9014C137.333 60.8115 137.301 60.736 137.237 60.6748C137.175 60.6136 137.049 60.5361 136.86 60.4424C136.672 60.3486 136.548 60.264 136.489 60.1885C136.431 60.1143 136.401 60.0205 136.401 59.9072C136.401 59.7601 136.451 59.637 136.552 59.5381C136.653 59.4391 136.784 59.3896 136.944 59.3896C137.015 59.3896 137.1 59.4046 137.2 59.4346C137.267 59.4541 137.311 59.4639 137.333 59.4639C137.354 59.4639 137.37 59.4593 137.382 59.4502C137.394 59.4411 137.407 59.4209 137.423 59.3896H137.487ZM138.345 58.4541C138.399 58.4541 138.446 58.4736 138.483 58.5127C138.522 58.5505 138.542 58.5967 138.542 58.6514C138.542 58.7061 138.522 58.7529 138.483 58.792C138.446 58.8311 138.399 58.8506 138.345 58.8506C138.29 58.8506 138.243 58.8311 138.204 58.792C138.165 58.7529 138.146 58.7061 138.146 58.6514C138.146 58.5967 138.164 58.5505 138.202 58.5127C138.241 58.4736 138.289 58.4541 138.345 58.4541ZM138.507 59.3896V60.8271C138.507 60.9391 138.515 61.014 138.53 61.0518C138.547 61.0882 138.571 61.1156 138.603 61.1338C138.635 61.152 138.694 61.1611 138.778 61.1611V61.2314H137.909V61.1611C137.996 61.1611 138.055 61.1527 138.085 61.1357C138.115 61.1188 138.138 61.0908 138.155 61.0518C138.174 61.0127 138.183 60.9378 138.183 60.8271V60.1377C138.183 59.9437 138.177 59.818 138.165 59.7607C138.156 59.7191 138.142 59.6904 138.122 59.6748C138.103 59.6579 138.076 59.6494 138.042 59.6494C138.006 59.6494 137.961 59.6592 137.909 59.6787L137.882 59.6084L138.421 59.3896H138.507ZM140.522 60.5518C140.474 60.7874 140.38 60.9691 140.239 61.0967C140.099 61.223 139.943 61.2861 139.772 61.2861C139.569 61.2861 139.392 61.2008 139.241 61.0303C139.09 60.8597 139.015 60.6292 139.015 60.3389C139.015 60.0576 139.098 59.8291 139.265 59.6533C139.433 59.4775 139.634 59.3896 139.868 59.3896C140.044 59.3896 140.188 59.4365 140.302 59.5303C140.415 59.6227 140.472 59.7191 140.472 59.8193C140.472 59.8688 140.455 59.9092 140.423 59.9404C140.392 59.9704 140.347 59.9854 140.29 59.9854C140.213 59.9854 140.155 59.9606 140.116 59.9111C140.094 59.8838 140.079 59.8317 140.071 59.7549C140.065 59.6781 140.039 59.6195 139.993 59.5791C139.948 59.54 139.884 59.5205 139.804 59.5205C139.674 59.5205 139.569 59.5687 139.489 59.665C139.384 59.7926 139.331 59.9613 139.331 60.1709C139.331 60.3844 139.383 60.5732 139.487 60.7373C139.593 60.9001 139.735 60.9814 139.913 60.9814C140.041 60.9814 140.155 60.9378 140.257 60.8506C140.328 60.7907 140.398 60.682 140.466 60.5244L140.522 60.5518ZM141.155 60.8525C141.216 60.8525 141.268 60.874 141.31 60.917C141.351 60.9587 141.372 61.0094 141.372 61.0693C141.372 61.1292 141.351 61.1807 141.308 61.2236C141.266 61.2653 141.215 61.2861 141.155 61.2861C141.095 61.2861 141.044 61.2653 141.001 61.2236C140.959 61.1807 140.938 61.1292 140.938 61.0693C140.938 61.0081 140.959 60.9567 141.001 60.915C141.044 60.8734 141.095 60.8525 141.155 60.8525Z" fill="black"/>
</svg>
